<svg version="1.1" xmlns="http://www.w3.org/2000/svg" viewBox="0 0 70.28616571351813 71.3677347505909"
>
    <!-- svg-source:excalidraw -->

    <g stroke-linecap="round">
        <g transform="translate(26.631089404829254 10.989860210567713) rotate(0 -1.0012859564412793 24.63121635979951)">
            <path d="M-2.01 2.32 C-2.35 13.46, -2.82 33.93, 0.08 50.25 M-1.14 -0.99 C-1.11 9.58, -1.43 22.33, 0.26 48.79"
                  stroke="currentColor" stroke-width="4" fill="none"></path>
        </g>
    </g>
    <mask></mask>
    <g stroke-linecap="round">
        <g transform="translate(42.47032008637689 13.149377382200328) rotate(0 0.91082913428545 22.744801271250253)">
            <path d="M-1.3 -2.73 C-0.17 18.82, 2.79 35.53, 3.12 48.22 M1.63 0.27 C1.86 13.38, 0.68 28.42, 0.13 46.39"
                  stroke="currentColor" stroke-width="4" fill="none"></path>
        </g>
    </g>
    <mask></mask>
    <g stroke-linecap="round">
        <g transform="translate(10.1444841547127 26.23997006692298) rotate(0 25.10668848612295 0.8950026301045)">
            <path d="M1.76 2.92 C17.38 3.55, 26.42 0.03, 50.14 0.46 M0.07 0.81 C13.52 -1.7, 22.78 -1.99, 48.77 0.65"
                  stroke="currentColor" stroke-width="4" fill="none"></path>
        </g>
    </g>
    <mask></mask>
    <g stroke-linecap="round">
        <g transform="translate(9.73231902346015 42.72657531703953) rotate(0 24.864383514347537 -0.36424881353013916)">
            <path d="M3.34 1.18 C15.12 0.17, 26.83 2.07, 45.96 -2.19 M0.27 1.23 C19.74 1.17, 39.02 1.95, 49.46 0.94"
                  stroke="currentColor" stroke-width="4" fill="none"></path>
        </g>
    </g>
    <mask></mask>
</svg>