<svg version="1.1" xmlns="http://www.w3.org/2000/svg" viewBox="0 0 64.63446787226712 65.75032956906944"
>
    <!-- svg-source:excalidraw -->
    <g stroke-linecap="round"
       transform="translate(10 9.999999999996362) rotate(0 22.31723393613356 22.875164784536537)">
        <path d="M11 6.02 C14.32 2.84, 18.94 -0.39, 23.28 -0.36 C27.61 -0.34, 33.23 2.86, 37.02 6.17 C40.8 9.48, 45.72 14.73, 46 19.51 C46.27 24.3, 41.6 30.62, 38.68 34.86 C35.76 39.1, 32.63 43.35, 28.49 44.95 C24.34 46.56, 18.54 46.44, 13.82 44.48 C9.1 42.52, 2.2 37.82, 0.18 33.19 C-1.83 28.57, -1.23 22.04, 1.74 16.72 C4.7 11.4, 13.34 3.88, 17.97 1.3 C22.6 -1.28, 29.47 0.84, 29.52 1.25 M26.22 0.79 C31.09 0.65, 38.12 2.72, 41.55 6.08 C44.98 9.45, 47.26 16.3, 46.8 20.98 C46.35 25.67, 42.53 30.11, 38.82 34.19 C35.11 38.26, 29.41 44.45, 24.54 45.44 C19.66 46.43, 13.15 41.97, 9.59 40.11 C6.04 38.25, 5.05 38.36, 3.21 34.28 C1.38 30.2, -2.27 20.99, -1.43 15.62 C-0.59 10.26, 4.04 5.06, 8.25 2.11 C12.46 -0.84, 21.19 -2.24, 23.83 -2.07 C26.48 -1.9, 24.38 1.9, 24.12 3.15"
              stroke="currentColor" stroke-width="4" fill="none"></path>
    </g>
</svg>